# xmcd
#
# Track frame offsets:
#	150
#	16886
#	31410
#	50436
#	70058
#	90936
#	103805
#	123341
#	141051
#	153724
#	169092
#	183207
#	199046
#	214601
#	233939
#	254919
#
# Disc length: 3618 seconds
#
# Revision: 1
# Processed by: cddbd v1.5.2PL0 Copyright (c) Steve Scherf et al.
# Submitted via: audiograbber 1.83.01
#
DISCID=db0e2010
DTITLE=venegret - vint
DYEAR=2007
DGENRE=r'n'b
TTITLE0=50 Cent Feat Akon   Ill Still Kill
TTITLE1=Cassie   Is It You
TTITLE2=Chris Brown Feat T-Pain  Kiss Kiss
TTITLE3=Fergie Feat. Sean Kingston   Big Girls Don't Cry (Rmx)
TTITLE4=Will I Am I Got It From My Mama 119bpm
TTITLE5=50 Cent Feat Nicole Scherzinge Fire
TTITLE6=Britney Spears Gimme More 113bpm
TTITLE7=Pitbull Feat. Trina And Young Go Girl-(Radio)
TTITLE8=Crush  AfterParty(Frank J Radio Mix)
TTITLE9=Elephant Man Feat Rihanna  Throw Your Hands Up
TTITLE10=Shaggy Feat Akon  What's Love
TTITLE11=Beyonce  Green Light (Album Version)
TTITLE12=Daddy Yankee Feat Jennifer Lop Mi Fiel Amiga
TTITLE13=Chuck Brown Feat Dj Kool Block Party
TTITLE14=Eve feat Sean Paul    Give It To You 88bpm
TTITLE15=Hector el Father Feat Jay-Z and     Mi Amor
EXTD=
EXTT0=
EXTT1=
EXTT2=
EXTT3=
EXTT4=
EXTT5=
EXTT6=
EXTT7=
EXTT8=
EXTT9=
EXTT10=
EXTT11=
EXTT12=
EXTT13=
EXTT14=
EXTT15=
PLAYORDER=
